<?xml version="1.0" encoding="UTF-8"?>
<svg id="Layer_1" data-name="Layer 1" xmlns="http://www.w3.org/2000/svg" viewBox="0 0 332.25131 233.28105">
  <defs>
    <style>
      .cls-1 {
        fill: #6d6d6d;
        stroke-width: 0px;
      }
    </style>
  </defs>
  <path class="cls-1" d="m162.25286,72.21223c0,17.78448-.00087,35.56896.00104,53.35344.00025,2.34485.11103,2.45542,2.401,2.50686,9.33969.20982,18.20771-1.49847,26.0426-6.86322,4.61842-3.16238,8.10042-7.27029,9.14108-13.00941.72357-3.99056-.23269-7.64026-2.4246-10.97657-1.52276-2.31781-3.05978-4.63789-4.75881-6.82621-7.82081-10.073-3.27953-21.29135,2.8748-27.42144,6.82087-6.79401,18.53245-7.24729,26.66504-1.12875,5.71701,4.30119,8.84201,10.11182,9.15833,17.23151.68211,15.35251-3.71735,29.34923-12.7472,41.6097-14.39734,19.54829-34.22843,28.13366-58.2398,26.31343-29.51443-2.2374-53.48107-24.36816-58.42334-53.55648-4.31803-25.50171,3.98923-46.53053,23.69725-62.98556,9.8823-8.25114,21.51216-12.73162,34.38948-13.80623,2.25182-.18791,2.25133-.15439,2.25122,2.04554-.00093,17.8378-.00053,35.67559-.00053,53.51339-.00918,0-.01837,0-.02755,0Z"/>
  <path class="cls-1" d="m170.2191,55.50029c0-3.30843.05767-6.61834-.02692-9.9246-.03644-1.42442.416-1.87569,1.84236-1.73032,5.82384.59359,10.42286,5.85055,10.32956,11.9053-.09265,6.01097-4.76168,11.06178-10.57255,11.51096-1.21763.09413-1.60192-.33744-1.58498-1.51612.04909-3.41445.01738-6.83006.01738-10.24522h-.00485Z"/>
  <path class="cls-1" d="m170.22766,28.15942c0-3.25473-.00585-6.50948.00226-9.7642.0046-1.8496.15366-1.96922,2.03875-1.75955,5.32552.59232,9.64659,5.23008,10.07274,10.81098.43297,5.67037-3.21336,10.75677-8.75286,12.20855-.10305.02701-.20928.04166-.31303.06628-2.89966.68797-3.05663.56219-3.05566-2.43802.00098-3.04135.00022-6.08269.00022-9.12404.00252,0,.00506,0,.00758,0Z"/>
  <path class="cls-1" d="m199.2618,196.91018c.99961-3.51463,1.71829-7.62795,3.33833-11.34884,2.17621-4.99825,6.61264-7.10766,11.96086-7.01438,5.60745.09778,9.89898,2.74765,12.15005,7.84547,3.19564,7.23692,3.20947,14.70894.13242,22.02717-2.43492,5.79106-6.96479,8.42541-13.25613,8.15328-5.744-.24852-10.15024-3.25636-12.10067-9.03204-1.07083-3.17097-1.40835-6.58963-2.22487-10.63066Zm23.9404,1.09925c-.56373-2.93218-.81804-5.39362-1.53461-7.71217-1.04307-3.37508-3.65606-5.239-6.89222-5.38412-3.55133-.15925-6.16446,1.50378-7.38639,4.67265-2.15313,5.58382-2.30399,11.27136.53746,16.74327,1.37474,2.64734,3.6849,4.05371,6.67319,4.01819,2.89257-.03434,5.26036-1.44994,6.32371-4.0648,1.11602-2.74424,1.60832-5.74209,2.27886-8.27302Z"/>
  <path class="cls-1" d="m130.94845,179.53901c5.36399,0,10.61674-.00627,15.86943.01367.36246.00139.7327.17561,1.08493.30777,4.05488,1.52139,6.21579,6.29546,5.65989,12.48863-.45439,5.06223-3.07736,8.53686-7.28559,9.236-2.31262.38414-4.70364.507-7.04826.42635-2.16928-.07465-2.80556.74838-2.71329,2.80783.13521,3.01723-.03306,6.04704.05698,9.06767.07328,2.45887-1.62881,2.05931-3.09594,2.11095-1.46114.05147-2.83135.17315-2.81906-2.04389.06181-11.14767.03377-22.29583.05287-33.44379.00061-.35435.17055-.7084.23804-.97119Zm9.34362,5.7195q-3.72782-.12563-3.73929,3.66845c-.00192.66129.00102,1.32254.0034,1.98383q.01941,5.40724,5.48487,5.0369c3.57075-.24197,5.40738-1.99121,5.46522-5.20529.06775-3.76273-1.96368-5.30693-7.2142-5.48388Z"/>
  <path class="cls-1" d="m195.38404,189.18798c-1.81457.586-3.49267,1.12789-5.39691,1.74284-.43394-.92607-.7847-1.76915-1.21223-2.57128-2.29255-4.30146-7.89845-4.72348-10.7957-.82402-3.16982,4.26633-3.21947,15.82802-.08635,20.09387,2.87058,3.90833,8.228,3.56626,10.4922-.71844.65297-1.23566,1.0679-2.59708,1.57921-3.8692.24508-.05576.44345-.17037.5934-.12501,5.48759,1.66128,5.73813,2.24518,3.16804,7.32172-4.0085,7.91782-14.83321,8.75194-20.32064,1.56587-5.40542-7.07867-5.31867-21.79795.29879-28.6269,3.28797-3.99705,7.58991-5.46733,12.68042-4.24998,4.93015,1.17899,7.79713,4.38588,8.99976,10.26052Z"/>
  <path class="cls-1" d="m111.60135,200.86058c.00399-4.34743-.0629-8.69639.03424-13.04165.04388-1.9634-.65347-2.80315-2.63512-2.60029-.93546.09577-1.88852.01995-2.83362.02116-3.66398.00464-3.57385.00338-3.61834-3.52248-.02419-1.91722.52292-2.6729,2.57608-2.63401,6.32991.11988,12.66448.11045,18.995.00948,2.0135-.03209,2.75666.64417,2.50613,2.62684-.20773,1.64407.62006,3.57964-2.46433,3.58141-6.58897.00379-6.58776.16316-6.58632,6.73819.00156,7.08824-.11243,14.17921.06212,21.26319.06143,2.49298-1.04383,2.74791-3.0377,2.74549-1.96973-.00236-3.18533-.1963-3.0587-2.71502.20855-4.14791.05658-8.31391.06055-12.47229Z"/>
  <path class="cls-1" d="m158.60246,179.32802q5.95066-.47965,5.96276,4.93334c.00939,9.54948-.03823,19.0994.04968,28.64811.02015,2.18844-.3985,3.20053-2.93743,3.19214-2.54087-.00839-3.15456-.78401-3.12061-3.2546.13903-10.11483.05036-20.23274.04566-30.34952-.00047-1.01035-.00005-2.02069-.00005-3.16948Z"/>
</svg>